<svg xmlns="http://www.w3.org/2000/svg" width="3191" height="219" shape-rendering="geometricPrecision" image-rendering="optimizeQuality" fill-rule="evenodd" xmlns:v="https://vecta.io/nano"><path d="M1371.5-.5h26c32.71 4.017 62.38 15.85 89 35.5 14.25 10.917 27.92 22.584 41 35l76 82c10.3 2.437 20.3 5.437 30 9-22.55-24.32-32.39-53.154-29.5-86.5 4.36-27.03 19.86-43.863 46.5-50.5 7.88-2.152 15.88-3.152 24-3-29.73 30.569-35.9 65.402-18.5 104.5 18.01 35.658 46.51 58.491 85.5 68.5 43.35 12.154 86.35 11.154 129-3 50.6-22.706 68.77-60.873 54.5-114.5-12.28-28.941-33.44-48.107-63.5-57.5-39.92-11.558-74.42-2.724-103.5 26.5-16.24 19.959-20.91 42.292-14 67 8.44 16.65 21.6 27.817 39.5 33.5 23.51 8.558 44.34 4.391 62.5-12.5 12.03-15.61 11.19-30.443-2.5-44.5-5.13-3.598-10.8-4.931-17-4-1.43.465-2.6 1.299-3.5 2.5 1.33 3.673 3 7.34 5 11 2.31 13.025-2.85 21.525-15.5 25.5-14.24 3.252-25.08-1.248-32.5-13.5-3.81-24.499 6.69-38.666 31.5-42.5 19.59-2.693 36.09 3.14 49.5 17.5 12.25 22.8 9.42 43.633-8.5 62.5-13.7 10.844-29.37 16.011-47 15.5-26.26.088-48.43-9.246-66.5-28-15.04-20.274-19.04-42.608-12-67 10.26-29.257 29.76-49.757 58.5-61.5 8.91-3.308 17.91-5.808 27-7.5h33c35.05 4.549 63.05 21.049 84 49.5a3562.66 3562.66 0 0 0 404 53l94 .5c2.96-15.134 11.63-25.634 26-31.5 24.75-8.029 44.59-1.529 59.5 19.5a35.45 35.45 0 0 1 3.5 12h674v13h-674c-4.06 17.893-15.06 29.06-33 33.5-24.9 4.631-43.07-4.203-54.5-26.5-.98-2.24-1.48-4.573-1.5-7a1218.88 1218.88 0 0 0-180 7.5c-107.34 10.668-214.01 26.001-320 46-21.22 24.287-47.89 39.287-80 45-10.44 1.761-20.78 3.261-31 4.5h-53c-20.93-1.79-41.93-4.29-63-7.5-33.54-7.307-67.2-13.974-101-20-32.08-5.201-62.41-.201-91 15l-8.5 6.5c-1.88-32.399 12.96-52.565 44.5-60.5a200.41 200.41 0 0 1 34-3c-24.6-27.272-49.94-53.939-76-80-20.32-18.965-43.32-33.965-69-45-37.77-12.923-75.11-11.59-112 4-44.5 21.159-62.33 55.992-53.5 104.5 11.62 35.948 35.78 58.448 72.5 67.5 31.92 7.628 60.92 1.628 87-18 24.67-21.651 32.5-48.151 23.5-79.5a64.76 64.76 0 0 0-16.5-19.5c-16.73-12.182-35.4-17.182-56-15-13.82 2.851-24.66 10.018-32.5 21.5-7.55 15.643-4.72 29.143 8.5 40.5 6.01 2.992 12.01 3.158 18 .5.21-.586.54-1.086 1-1.5-8.55-11.335-7.89-22.002 2-32 12.05-6.39 23.72-5.723 35 2 6.59 6.886 8.76 15.052 6.5 24.5-5.29 14.242-15.46 22.742-30.5 25.5-22.51 3.482-40.68-3.685-54.5-21.5-9.44-24.045-4.27-44.545 15.5-61.5 19.64-11.612 40.64-14.945 63-10 47.73 11.975 67.4 42.142 59 90.5-9.14 30.431-28.47 51.597-58 63.5-11.16 4.123-22.49 6.956-34 8.5h-21c-37.31-2.983-66.98-19.483-89-49.5-132.99-25.237-266.99-42.904-402-53l-103-.5c-3.565 16.733-13.565 27.566-30 32.5-22.382 5.984-40.549-.182-54.5-18.5a56.41 56.41 0 0 1-5.5-13.5l-673-.5v-13l673-.5c6.914-22.223 22.081-33.723 45.5-34.5 17.319.322 30.652 7.655 40 22 2.202 4.106 3.702 8.44 4.5 13 57.821 1.679 115.488-.488 173-6.5 111.37-10.72 222.04-26.386 332-47 17.72-20.539 39.72-34.539 66-42 12.64-3.362 25.31-5.862 38-7.5z" opacity=".96"/></svg>