<svg xmlns="http://www.w3.org/2000/svg" width="3337" height="270" shape-rendering="geometricPrecision" image-rendering="optimizeQuality" fill-rule="evenodd" xmlns:v="https://vecta.io/nano"><path d="M1407.5-.5h23c8.54 2.097 16.54 5.597 24 10.5 10.95 10.759 13.45 23.259 7.5 37.5-3.51 7.177-8.18 13.51-14 19-3.72 5.29-2.89 9.79 2.5 13.5 10.45 5.262 21.45 8.929 33 11 16.2 3.367 32.54 5.867 49 7.5 7.63-.16 14.96-1.66 22-4.5 24.07-45.141 61.91-68.308 113.5-69.5 44.19.595 79.19 18.595 105 54 2.92 4.841 5.59 9.841 8 15 9.07 4.01 18.57 5.51 28.5 4.5 18.86-2.254 37.53-5.588 56-10 6.63-1.543 12.96-3.876 19-7 5.87-3.087 7.37-7.587 4.5-13.5a63.74 63.74 0 0 0-9-10c-15.57-23.814-10.74-41.981 14.5-54.5l12-3.5h22c16.98 4.858 26.81 16.192 29.5 34 2.32 16.363-2.51 30.196-14.5 41.5-17.55 13.94-37.21 23.94-59 30a724.47 724.47 0 0 1-95 18.5v22c30.66 4.098 60.99 9.931 91 17.5 20.57 5.404 39.57 14.071 57 26 23.61 19.501 27.44 42.334 11.5 68.5-5.55 5.686-12.05 9.686-19.5 12h-24c-34.39-8.662-42.56-28.328-24.5-59 13.74-10.717 12.57-19.217-3.5-25.5-28.03-9.118-56.7-13.451-86-13-3.51.67-6.84 1.837-10 3.5-23.91 45.14-61.58 68.14-113 69-45.36-.423-80.86-19.09-106.5-56l-6-12c-7.11-3.861-14.77-5.861-23-6-20.7 2.339-41.2 5.839-61.5 10.5-9.13 1.925-17.3 5.758-24.5 11.5-1.97 3.498-1.63 6.832 1 10 13.46 11.377 18.79 25.711 16 43-3.83 9.167-10.33 15.667-19.5 19.5-4.39 1.671-8.73 3.171-13 4.5h-24c-17.58-5.433-27.41-17.433-29.5-36-1.1-17.296 5.06-31.462 18.5-42.5 17.02-12.173 35.68-21.173 56-27 31.26-8.286 62.93-14.453 95-18.5-.99-7.255-1.32-14.421-1-21.5-35.22-4.778-69.89-12.111-104-22-21.57-6.271-40.07-17.438-55.5-33.5-11.88-17.162-12.55-34.829-2-53 5.59-8.194 13.09-13.527 22.5-16zm251 44c41.32-2.089 73.82 13.577 97.5 47 19.77 36.862 16.1 71.195-11 103-34.84 32.434-74.67 40.267-119.5 23.5-45.07-21.304-63.24-56.471-54.5-105.5 11.4-32.398 33.57-53.564 66.5-63.5 7.07-1.845 14.07-3.345 21-4.5zm1 57c21.44-2.701 36.61 5.632 45.5 25 3.27 20.078-4.57 33.911-23.5 41.5-22.23 5.795-38.73-1.371-49.5-21.5-4.24-23.247 4.92-38.247 27.5-45z" opacity=".97"/><path d="M-.5 145.5v-22l929-.5c9.919-29.892 30.753-45.392 62.5-46.5 27.57.434 47.57 12.768 60 37 1.35 3.22 2.19 6.553 2.5 10h86c7.37-33.543 27.7-55.043 61-64.5 34.1-7.846 63.94-.013 89.5 23.5 26.05 30.848 28.05 63.181 6 97-24.37 27.791-54.87 38.291-91.5 31.5-31.54-7.211-52.71-26.044-63.5-56.5a30.66 30.66 0 0 1-1.5-9 3610.69 3610.69 0 0 0-85 .5c-10.09 30.064-31.09 45.564-63 46.5-31.913-.936-52.913-16.436-63-46.5l-929-.5zm1214-70c26.63-2.966 48.46 5.7 65.5 26 17.37 27.983 14.2 53.483-9.5 76.5-24.4 17.974-50.4 20.64-78 8-29.01-17.524-38.18-42.357-27.5-74.5 11.02-19.517 27.52-31.517 49.5-36zm2123 48v22c-309.67-.333-619.33 0-929 1-10.15 29.625-30.98 44.958-62.5 46-23-.331-41.33-9.665-55-28-3.63-5.917-6.13-12.25-7.5-19-28.34-.333-56.67 0-85 1-9.7 36.867-33.36 58.701-71 65.5-33.58 4.619-61.75-5.548-84.5-30.5-17.02-22.124-21.02-46.457-12-73 13.32-29.63 36.15-46.797 68.5-51.5 35.68-4.225 64.52 7.608 86.5 35.5 6.25 9.332 10.42 19.499 12.5 30.5l85 .5c6.41-22.91 21.08-37.743 44-44.5 27.78-6.516 51.28.65 70.5 21.5 4.84 6.674 8.34 14.008 10.5 22l929 1zm-1235-48c25.28-2.524 46.44 5.476 63.5 24 20.6 33.257 15.1 61.423-16.5 84.5-34.14 17.276-64.31 12.11-90.5-15.5-19.77-33.151-13.94-60.985 17.5-83.5 8.26-4.648 16.93-7.815 26-9.5z" opacity=".951"/><path d="M1656.5 81.5c23.5-3.004 43.33 3.996 59.5 21 17.66 27.182 14.5 51.682-9.5 73.5-23.36 15.39-47.36 16.39-72 3-23.93-16.782-30.76-38.948-20.5-66.5 9.64-16.567 23.81-26.9 42.5-31zm3 19c-22.58 6.753-31.74 21.753-27.5 45 10.77 20.129 27.27 27.295 49.5 21.5 18.93-7.589 26.77-21.422 23.5-41.5-8.89-19.368-24.06-27.701-45.5-25z" opacity=".953"/><path d="M1217.5 103.5c17.91-2.329 31.08 4.338 39.5 20 4.93 17.977-.91 31.144-17.5 39.5-20.76 6.974-36.59 1.14-47.5-17.5-4.52-21.977 3.98-35.977 25.5-42z" opacity=".975"/><path d="M2104.5 103.5c19.06-2.393 32.56 4.941 40.5 22 3.79 20.552-4.38 33.719-24.5 39.5-19.11 3.43-32.94-3.404-41.5-20.5-3.98-21.507 4.52-35.174 25.5-41z" opacity=".97"/></svg>